<svg width="1024" height="1024" viewBox="0 0 1024 1024" fill="none" xmlns="http://www.w3.org/2000/svg">
<g clip-path="url(#clip0_428_2235)">
<path d="M352 412.605L423.07 455.5L404.21 374.655L467 320.26L384.315 313.245L352 237L319.685 313.245L237 320.26L299.79 374.655L280.93 455.5L352 412.605Z" fill="#242424"/>
<path d="M352 1052.61L423.07 1095.5L404.21 1014.66L467 960.26L384.315 953.245L352 877L319.685 953.245L237 960.26L299.79 1014.66L280.93 1095.5L352 1052.61Z" fill="#242424"/>
<path d="M992 732.605L1063.07 775.5L1044.21 694.655L1107 640.26L1024.31 633.245L992 557L959.685 633.245L877 640.26L939.79 694.655L920.93 775.5L992 732.605Z" fill="#242424"/>
</g>
<defs>
<clipPath id="clip0_428_2235">
<rect width="1024" height="1024" fill="white"/>
</clipPath>
</defs>
</svg>
