<svg width="1024" height="1024" viewBox="0 0 1024 1024" fill="none" xmlns="http://www.w3.org/2000/svg">
<g clip-path="url(#clip0_428_2131)">
<path d="M72 632L-8 712M-8 632L72 712" stroke="#BC261A" stroke-width="26" stroke-linecap="square" stroke-linejoin="round"/>
<path d="M72 312L-8 392M-8 312L72 392" stroke="#BC261A" stroke-width="26" stroke-linecap="square" stroke-linejoin="round"/>
<path d="M72 -8L-8 72M-8 -8L72 72" stroke="#BC261A" stroke-width="26" stroke-linecap="square" stroke-linejoin="round"/>
<path d="M392 -8L312 72M312 -8L392 72" stroke="#BC261A" stroke-width="26" stroke-linecap="square" stroke-linejoin="round"/>
<path d="M712 -8L632 72M632 -8L712 72" stroke="#BC261A" stroke-width="26" stroke-linecap="square" stroke-linejoin="round"/>
<path d="M1032 -8L952 72M952 -8L1032 72" stroke="#BC261A" stroke-width="26" stroke-linecap="square" stroke-linejoin="round"/>
<path d="M1032 312L952 392M952 312L1032 392" stroke="#BC261A" stroke-width="26" stroke-linecap="square" stroke-linejoin="round"/>
<path d="M1032 952L952 1032M952 952L1032 1032" stroke="#BC261A" stroke-width="26" stroke-linecap="square" stroke-linejoin="round"/>
<path d="M712 952L632 1032M632 952L712 1032" stroke="#BC261A" stroke-width="26" stroke-linecap="square" stroke-linejoin="round"/>
<path d="M72 952L-8 1032M-8 952L72 1032" stroke="#BC261A" stroke-width="26" stroke-linecap="square" stroke-linejoin="round"/>
<path d="M392 632L312 712M312 632L392 712" stroke="#BC261A" stroke-width="26" stroke-linecap="square" stroke-linejoin="round"/>
<path d="M712 632L632 712M632 632L712 712" stroke="#BC261A" stroke-width="26" stroke-linecap="square" stroke-linejoin="round"/>
<path d="M712 312L632 392M632 312L712 392" stroke="#BC261A" stroke-width="26" stroke-linecap="square" stroke-linejoin="round"/>
</g>
<defs>
<clipPath id="clip0_428_2131">
<rect width="1024" height="1024" fill="white"/>
</clipPath>
</defs>
</svg>
