<svg width="1024" height="1024" viewBox="0 0 1024 1024" fill="none" xmlns="http://www.w3.org/2000/svg">
  <g>
<rect width="1040" height="20" transform="translate(-8 822)" fill="#9198A1"/>
<rect width="1040" height="20" transform="translate(-8 502)" fill="#9198A1"/>
<rect width="1040" height="20" transform="translate(-8 182)" fill="#9198A1"/>
<rect width="1040" height="20" transform="matrix(0 -1 1 0 822 1032)" fill="#9198A1"/>
<rect width="1040" height="20" transform="matrix(0 -1 1 0 502 1032)" fill="#9198A1"/>
<rect width="1040" height="20" transform="matrix(0 -1 1 0 182 1032)" fill="#9198A1"/>
</g>
  <g>
<rect width="339" height="40" transform="matrix(0 -1 1 0 812 512)" fill="#F0F6FC"/>
<rect width="1032" height="40" transform="matrix(0 -1 1 0 172 1032)" fill="#F0F6FC"/>
<rect width="1163" height="40" transform="translate(172 812)" fill="#F0F6FC"/>
<rect width="271" height="40" transform="translate(812 492)" fill="#F0F6FC"/>
<rect width="671" height="40" transform="translate(172 173)" fill="#F0F6FC"/>
</g>
  <g>
<path d="M72 632L-8 712M-8 632L72 712" stroke="#F85149" stroke-width="26" stroke-linecap="square" stroke-linejoin="round"/>
<path d="M72 312L-8 392M-8 312L72 392" stroke="#F85149" stroke-width="26" stroke-linecap="square" stroke-linejoin="round"/>
<path d="M72 -8L-8 72M-8 -8L72 72" stroke="#F85149" stroke-width="26" stroke-linecap="square" stroke-linejoin="round"/>
<path d="M392 -8L312 72M312 -8L392 72" stroke="#F85149" stroke-width="26" stroke-linecap="square" stroke-linejoin="round"/>
<path d="M712 -8L632 72M632 -8L712 72" stroke="#F85149" stroke-width="26" stroke-linecap="square" stroke-linejoin="round"/>
<path d="M1032 -8L952 72M952 -8L1032 72" stroke="#F85149" stroke-width="26" stroke-linecap="square" stroke-linejoin="round"/>
<path d="M1032 312L952 392M952 312L1032 392" stroke="#F85149" stroke-width="26" stroke-linecap="square" stroke-linejoin="round"/>
<path d="M1032 952L952 1032M952 952L1032 1032" stroke="#F85149" stroke-width="26" stroke-linecap="square" stroke-linejoin="round"/>
<path d="M712 952L632 1032M632 952L712 1032" stroke="#F85149" stroke-width="26" stroke-linecap="square" stroke-linejoin="round"/>
<path d="M72 952L-8 1032M-8 952L72 1032" stroke="#F85149" stroke-width="26" stroke-linecap="square" stroke-linejoin="round"/>
<path d="M392 632L312 712M312 632L392 712" stroke="#F85149" stroke-width="26" stroke-linecap="square" stroke-linejoin="round"/>
<path d="M712 632L632 712M632 632L712 712" stroke="#F85149" stroke-width="26" stroke-linecap="square" stroke-linejoin="round"/>
<path d="M712 312L632 392M632 312L712 392" stroke="#F85149" stroke-width="26" stroke-linecap="square" stroke-linejoin="round"/>
</g>
  <g>
<path d="M352 412.605L423.07 455.5L404.21 374.655L467 320.26L384.315 313.245L352 237L319.685 313.245L237 320.26L299.79 374.655L280.93 455.5L352 412.605Z" fill="#F0F6FC"/>
<path d="M352 1052.61L423.07 1095.5L404.21 1014.66L467 960.26L384.315 953.245L352 877L319.685 953.245L237 960.26L299.79 1014.66L280.93 1095.5L352 1052.61Z" fill="#F0F6FC"/>
<path d="M992 732.605L1063.07 775.5L1044.21 694.655L1107 640.26L1024.31 633.245L992 557L959.685 633.245L877 640.26L939.79 694.655L920.93 775.5L992 732.605Z" fill="#F0F6FC"/>
</g>
</svg>